<mxfile host="app.diagrams.net" modified="2024-01-14T15:08:33.258Z" agent="Mozilla/5.0 (Windows NT 10.0; Win64; x64) AppleWebKit/537.36 (KHTML, like Gecko) Chrome/120.0.0.0 Safari/537.36" version="22.1.18" etag="pSBNKRWfWX9RTFEyJ_mM" type="github">
  <diagram name="Trang-1" id="YuaQtgo_C4i_mVFzDskZ">
    <mxGraphModel>
      <root>
        <mxCell id="0" />
        <mxCell id="1" parent="0" />
      </root>
    </mxGraphModel>
  </diagram>
</mxfile>
